<svg xmlns="http://www.w3.org/2000/svg" viewBox="0 0 300 150">
  <path fill="none" stroke="black" stroke-width="2" d="M10,10 L290,10 L290,140 L10,140 Z"/>
  <path fill="none" stroke="black" stroke-width="2" d="M15,40 L135,40 L135,50 L15,50 Z"/>
  <path fill="none" stroke="black" stroke-width="2" d="M15,60 L135,60 L135,70 L15,70 Z"/>
  <path fill="none" stroke="black" stroke-width="2" d="M15,80 L135,80 L135,90 L15,90 Z"/>
  <path fill="none" stroke="black" stroke-width="2" d="M15,100 L135,100 L135,110 L15,110 Z"/>
  <path fill="none" stroke="black" stroke-width="2" d="M15,120 L135,120 L135,130 L15,130 Z"/>
  <path fill="none" stroke="black" stroke-width="2" d="M140,40 L270,40 L270,50 L140,50 Z"/>
  <path fill="none" stroke="black" stroke-width="2" d="M140,60 L270,60 L270,70 L140,70 Z"/>
  <path fill="none" stroke="black" stroke-width="2" d="M140,80 L270,80 L270,90 L140,90 Z"/>
  <path fill="none" stroke="black" stroke-width="2" d="M140,100 L270,100 L270,110 L140,110 Z"/>
  <path fill="none" stroke="black" stroke-width="2" d="M140,120 L270,120 L270,130 L140,130 Z"/>
  <path fill="none" stroke="black" stroke-width="2" d="M170,10 L220,10 L220,50 L170,50 Z"/>
  <path fill="none" stroke="black" stroke-width="2" d="M170,60 L220,60 L220,70 L170,70 Z"/>
  <path fill="none" stroke="black" stroke-width="2" d="M170,80 L220,80 L220,90 L170,90 Z"/>
  <path fill="none" stroke="black" stroke-width="2" d="M170,100 L220,100 L220,110 L170,110 Z"/>
  <path fill="none" stroke="black" stroke-width="2" d="M170,120 L220,120 L220,130 L170,130 Z"/>
  <path fill="none" stroke="black" stroke-width="2" d="M200,10 L250,10 L250,50 L200,50 Z"/>
  <path fill="none" stroke="black" stroke-width="2" d="M200,60 L250,60 L250,70 L200,70 Z"/>
  <path fill="none" stroke="black" stroke-width="2" d="M200,80 L250,80 L250,90 L200,90 Z"/>
  <path fill="none" stroke="black" stroke-width="2" d="M200,100 L250,100 L250,110 L200,110 Z"/>
  <path fill="none" stroke="black" stroke-width="2" d="M200,120 L250,120 L250,130 L200,130 Z"/>
  <path fill="none" stroke="black" stroke-width="2" d="M230,10 L280,10 L280,50 L230,50 Z"/>
  <path fill="none" stroke="black" stroke-width="2" d="M230,60 L280,60 L280,70 L230,70 Z"/>
  <path fill="none" stroke="black" stroke-width="2" d="M230,80 L280,80 L280,90 L230,90 Z"/>
  <path fill="none" stroke="black" stroke-width="2" d="M230,100 L280,100 L280,110 L230,110 Z"/>
  <path fill="none" stroke="black" stroke-width="2" d="M230,120 L280,120 L280,130 L230,130 Z"/>
  <path fill="none" stroke="black" stroke-width="2" d="M210,140 L260,140 L260,150 L210,150 Z"/>
</svg>